# xmcd
#
# Track frame offsets:
#	150
#	23287
#	39270
#	58305
#	78225
#	94480
#	115380
#	128782
#
# Disc length: 1947 seconds
#
# Revision: 0
# Processed by: cddbd v1.5PL3 Copyright (c) Steve Scherf et al.
# Submitted via: audiograbber 1.82.02
#
DISCID=5f079908
DTITLE=Maureen Andrews - Back to Love
DYEAR=1993
DGENRE=Country
TTITLE0=I Turned
TTITLE1=Brand of Love
TTITLE2=Time is Cash
TTITLE3=Kiss
TTITLE4=Open My Door
TTITLE5=Crocodile Tears
TTITLE6=Cowboy Poet
TTITLE7=Don't Bite the Love
EXTD=Maureen Andrews with Walkin' After Midnight, syways Productions, PO Box 10
EXTD=842, Portland, OR, 97210 - Turbulence Productions, (503) 887-4865. BMI
EXTT0=
EXTT1=
EXTT2=
EXTT3=
EXTT4=
EXTT5=
EXTT6=
EXTT7=
PLAYORDER=
